<svg id="visual" viewBox="0 0 900 600" width="900" height="600" xmlns="http://www.w3.org/2000/svg" xmlns:xlink="http://www.w3.org/1999/xlink" version="1.1"><rect x="0" y="0" width="900" height="600" fill="#fd7380"></rect><path d="M0 438L225 372L450 348L675 402L900 364L900 601L675 601L450 601L225 601L0 601Z" fill="#f9b4bd"></path><path d="M0 369L225 370L450 465L675 369L900 399L900 601L675 601L450 601L225 601L0 601Z" fill="#faacb6"></path><path d="M0 421L225 393L450 382L675 425L900 439L900 601L675 601L450 601L225 601L0 601Z" fill="#fba4af"></path><path d="M0 460L225 459L450 456L675 475L900 496L900 601L675 601L450 601L225 601L0 601Z" fill="#fc9ca7"></path><path d="M0 491L225 452L450 486L675 495L900 443L900 601L675 601L450 601L225 601L0 601Z" fill="#fd94a0"></path><path d="M0 477L225 530L450 516L675 530L900 509L900 601L675 601L450 601L225 601L0 601Z" fill="#fd8c98"></path><path d="M0 515L225 552L450 503L675 502L900 499L900 601L675 601L450 601L225 601L0 601Z" fill="#fd8490"></path><path d="M0 552L225 537L450 537L675 524L900 521L900 601L675 601L450 601L225 601L0 601Z" fill="#fd7c88"></path><path d="M0 550L225 587L450 568L675 565L900 552L900 601L675 601L450 601L225 601L0 601Z" fill="#fd7380"></path></svg>